<?xml version="1.0" encoding="UTF-8"?> <svg xmlns="http://www.w3.org/2000/svg" id="icon" viewBox="0 0 1000 1000"><path d="M420.48,620c16.99,0,33.33,7.15,44.83,19.63,7.02,7.61,20.85,20.37,34.69,20.37,10.28,0,23.33-7.71,35.8-21.16,11.38-12.27,27.61-19.19,44.45-19.04l19.95,.2-.41,37-19.95-.2c-5.59-.08-8.33,2.06-14.72,9.24-14.04,15.79-37.33,33.97-65.13,33.97s-50.45-17.76-64.09-33.25c-6.97-7.92-9.58-9.75-15.43-9.75h-20.48v-37h20.48Zm319.52,62.94v153.11c0,7.37-7.7,12.21-14.34,9.01-45.55-21.94-145.3-65.06-225.66-65.06s-180.11,43.12-225.66,65.06c-6.64,3.2-14.34-1.63-14.34-9.01v-153.11c0-23.5,19.65-26.18,32.7-15.45l106.44,87.51c33.43-8.89,68.26-15,100.86-15s67.43,6.11,100.86,15l106.44-87.51c13.05-10.73,32.7-7.22,32.7,15.45Zm-386.75,86.12l-53.25-45.79v66.22c16.03-6.76,34.06-13.83,53.25-20.44Zm346.75-45.79l-53.25,45.79c19.2,6.61,37.23,13.67,53.25,20.44v-66.22Zm-360-143.27c17.71,0,32.72-11.52,37.99-27.47,23.95,5.24,46.12,2.4,62.01-7.79,6.71-9.7,7.83-28.7,0-39.16-30.95,15.02-47.36,11.44-65.71,3.78l-94.29-34.32v42.57l22.59,8.22c-9.82,20.94,6.01,54.17,37.41,54.17Zm357.41-54.17l22.59-8.22v-42.57s-94.29,34.32-94.29,34.32c-18.35,7.66-34.75,11.24-65.71-3.78-7.83,10.46-6.71,29.46,0,39.16,15.9,10.19,38.06,13.02,62.01,7.79,5.26,15.95,20.27,27.47,37.99,27.47,31.4,0,47.23-33.23,37.41-54.17Zm142.59-75.07v84.73c34.71,73.3,40,96.93,40,172.35v25.32c0,141.45-73.27,206.84-200,206.84H320c-126.73,0-200-65.4-200-206.84v-25.32c0-75.42,5.29-99.05,40-172.35v-84.73c-52.58-20.17-90-71.17-90-130.76,0-71.86,54.42-131.24,124.21-139.11l13.21-98.27c2.19-16.32,17.1-19.66,26.74-7.17l20.49,26.55c22.38-14.29,48.52-22.01,75.35-22.01,24.78,0,48.55,6.36,69.65,18.52,27.4-24.66,63.11-38.52,100.35-38.52s72.94,13.86,100.35,38.52c21.1-12.16,44.87-18.52,69.65-18.52,26.36,0,52.06,7.46,74.18,21.27l19.92-25.82c9.64-12.49,24.55-9.16,26.74,7.17l13.2,98.22c70.46,7.23,125.95,66.83,125.95,139.17,0,59.59-37.42,110.59-90,130.76Zm-79.82-307.45l-77.38,102.98c.03,11.67,16.07,27.5,40.64,34.39,21.72,6.09,44.55,1.76,52.39-9.47l-15.65-127.9ZM222.43,271.21c7.84,11.23,30.67,15.56,52.39,9.47,24.57-6.89,40.61-22.72,40.64-34.39l-77.38-102.98-15.65,127.9Zm-12.43,148.79c27.93,0,57.38-10.17,89.47-46.59,25.25,38.42,66.93,56.59,100.53,56.59s65.16-11.95,100-55.22c34.84,43.26,67.21,55.22,100,55.22s75.29-18.17,100.53-56.59c32.09,36.42,61.54,46.59,89.47,46.59,55.14,0,100-44.86,100-100,0-48.44-34.63-88.94-80.43-98.06l7.12,52.96c-13.14,47.37-64.91,53.6-103.6,44.42-38.31-9.08-81.76-49.05-67.51-90.27l74.04-95.95c-14.68-8.36-31.63-13.1-49.63-13.1-21.95,0-43.65,5.86-75.07,28.4-29.87-37.02-63.3-48.4-94.93-48.4s-65.06,11.38-94.93,48.4c-31.42-22.54-53.12-28.4-75.07-28.4-18.48,0-35.87,5.01-50.82,13.8l73.5,95.25c14.25,41.22-29.2,81.18-67.51,90.27-38.68,9.17-90.46,2.95-103.6-44.42l7.07-52.59c-44.91,9.81-78.65,49.88-78.65,97.69,0,55.14,44.86,100,100,100Zm590,124.52v-84.88c-3.3,.23-6.64,.36-10,.36-31.85,0-62.7-10.97-87.35-30.61-27.65,26.02-64.05,40.61-102.65,40.61s-72.67-13.71-100-38.19c-27.33,24.48-62.74,38.19-100,38.19s-75.01-14.59-102.65-40.61c-24.65,19.64-55.5,30.61-87.35,30.61-3.36,0-6.7-.13-10-.36v84.88c-27.95,61.31-42.47,94.1-40,163.32v25.32c0,113.83,50.84,166.84,160,166.84h360c109.16,0,160-53.02,160-166.84v-25.32c2.47-69.22-12.05-102.01-40-163.32Z"></path></svg> 